<svg width="1280" height="832" viewBox="0 0 1280 832" fill="none" xmlns="http://www.w3.org/2000/svg">
<path d="M0 0H1280V832H0V0Z" fill="white" fill-opacity="0.4"/>
<path d="M1142 199C1142 212.255 1131.25 223 1118 223C1104.75 223 1094 212.255 1094 199C1094 185.745 1104.75 175 1118 175C1131.25 175 1142 185.745 1142 199Z" fill="#14755E"/>
<path d="M1262 229C1262 235.627 1256.63 241 1250 241C1243.37 241 1238 235.627 1238 229C1238 222.373 1243.37 217 1250 217C1256.63 217 1262 222.373 1262 229Z" fill="#6D9FFF"/>
<path d="M1214 404C1214 410.627 1208.63 416 1202 416C1195.37 416 1190 410.627 1190 404C1190 397.373 1195.37 392 1202 392C1208.63 392 1214 397.373 1214 404Z" fill="#D9C72A"/>
<path d="M1142 24C1142 30.6274 1136.63 36 1130 36C1123.37 36 1118 30.6274 1118 24C1118 17.3726 1123.37 12 1130 12C1136.63 12 1142 17.3726 1142 24Z" fill="#A63A5A"/>
</svg>
